<svg width="217" height="216" xmlns="http://www.w3.org/2000/svg" xmlns:xlink="http://www.w3.org/1999/xlink" xml:space="preserve" overflow="hidden"><g transform="translate(-561 -337)"><path d="M112.5 155.7 112.5 167.625 103.5 167.625 103.5 155.7C98.325 153.9 94.5 148.95 94.5 142.875 94.5 135.45 100.575 129.375 108 129.375 115.425 129.375 121.5 135.45 121.5 142.875 121.5 148.725 117.675 153.675 112.5 155.7ZM74.25 73.125C74.25 54.45 89.325 39.375 108 39.375 126.675 39.375 141.75 54.45 141.75 73.125L141.75 98.1 108 95.625 74.25 98.1 74.25 73.125ZM155.25 99 155.25 73.125C155.25 47.025 134.1 25.875 108 25.875 81.9 25.875 60.75 47.025 60.75 73.125L60.75 99 45 100.125 45 185.625 108 190.125 171 185.625 171 100.125 155.25 99Z" fill="#FFFFFF" transform="matrix(1.00463 0 0 1 561 337)"/></g></svg>