<svg width="197" height="197" xmlns="http://www.w3.org/2000/svg" xmlns:xlink="http://www.w3.org/1999/xlink" xml:space="preserve" overflow="hidden"><g transform="translate(-160 -343)"><path d="M258.5 437.396 227.719 439.653 227.719 402.51C227.719 385.478 241.468 371.729 258.5 371.729 275.532 371.729 289.281 385.478 289.281 402.51L289.281 414.823 301.594 414.823 301.594 402.51C301.594 378.706 282.304 359.417 258.5 359.417 234.696 359.417 215.406 378.706 215.406 402.51L215.406 440.474 201.042 441.5 201.042 519.479 258.5 523.583 315.958 519.479 315.958 441.5 258.5 437.396ZM262.604 492.186 262.604 503.062 254.396 503.062 254.396 492.186C249.676 490.545 246.188 486.03 246.188 480.49 246.188 473.718 251.728 468.177 258.5 468.177 265.272 468.177 270.812 473.718 270.812 480.49 270.812 485.825 267.324 490.34 262.604 492.186Z" fill="#FFFFFF"/></g></svg>